<?xml version="1.0" standalone="no"?>
<!DOCTYPE svg PUBLIC "-//W3C//DTD SVG 20010904//EN"
 "http://www.w3.org/TR/2001/REC-SVG-20010904/DTD/svg10.dtd">
<svg version="1.0" xmlns="http://www.w3.org/2000/svg"
 width="938.000000pt" height="938.000000pt" viewBox="0 0 938.000000 938.000000"
 preserveAspectRatio="xMidYMid meet">
<metadata>
Created by potrace 1.15, written by Peter Selinger 2001-2017
</metadata>
<g transform="translate(0.000000,938.000000) scale(0.100000,-0.100000)"
fill="#000000" stroke="none">
<path d="M1038 8490 c-281 -48 -522 -227 -651 -485 -50 -100 -75 -189 -87
-313 -8 -75 -10 -822 -8 -2507 4 -2399 4 -2400 25 -2490 51 -217 125 -345 264
-457 112 -90 264 -146 454 -168 57 -6 553 -10 1351 -10 694 0 1295 -3 1337 -6
l77 -7 0 -142 0 -142 -87 -7 c-49 -4 -122 -2 -163 3 -279 38 -500 -15 -719
-169 -130 -92 -347 -330 -386 -424 -30 -72 -9 -172 46 -223 59 -54 -75 -50
2249 -54 l2155 -4 37 23 c52 33 76 97 59 161 -80 305 -450 610 -821 677 -50 9
-163 13 -342 14 l-268 0 0 150 0 150 1345 0 c889 0 1378 4 1442 11 375 42 606
231 701 575 l27 99 3 2480 c2 1760 0 2503 -8 2560 -47 343 -219 564 -518 664
-158 53 27 51 -3862 50 -1983 -1 -3626 -5 -3652 -9z m7099 -883 c18 -9 41 -32
50 -50 17 -30 18 -149 18 -2272 0 -2069 -1 -2243 -17 -2277 -9 -20 -29 -45
-44 -55 -27 -17 -153 -18 -3454 -18 -3256 0 -3427 1 -3453 18 -15 9 -35 29
-44 44 -17 26 -18 147 -21 2268 -2 2039 -1 2244 14 2283 16 43 37 60 89 73 17
4 1560 6 3430 6 3230 -2 3402 -3 3432 -20z m-369 -4973 c100 -50 133 -162 73
-255 -51 -81 -62 -84 -403 -87 -336 -3 -363 0 -419 57 -98 98 -55 261 79 301
15 5 160 9 323 9 l295 1 52 -26z"/>
<path d="M4905 7003 c-42 -11 -286 -133 -355 -178 -40 -25 -128 -99 -194 -163
-136 -131 -229 -189 -352 -218 -106 -25 -287 -15 -434 24 -118 31 -1443 262
-1503 262 -93 0 -199 -76 -256 -182 -32 -61 -24 -85 52 -161 63 -64 268 -196
1027 -662 168 -103 307 -189 309 -191 6 -6 -82 -136 -154 -230 -77 -98 -203
-218 -278 -262 -136 -82 -304 -109 -482 -79 -57 10 -135 14 -212 12 -151 -4
-199 -22 -244 -94 -31 -47 -67 -147 -57 -156 10 -10 436 -194 539 -233 250
-94 324 -164 404 -384 41 -113 232 -557 246 -572 23 -25 175 63 216 125 l28
42 5 386 c6 433 5 424 81 498 24 23 139 121 254 217 160 133 213 172 221 163
6 -7 123 -194 259 -416 475 -775 530 -860 604 -933 38 -38 75 -68 83 -68 26 0
147 99 193 158 66 83 72 110 51 240 -47 289 -193 1123 -247 1412 -65 346 -69
402 -34 471 10 19 82 120 160 224 159 212 330 467 377 562 29 59 30 67 26 160
-7 175 -56 226 -223 230 -49 1 -99 -1 -110 -4z m-29 -291 c71 -36 104 -95 104
-185 l0 -54 -87 91 c-48 50 -106 111 -128 135 l-40 43 56 -5 c31 -3 74 -14 95
-25z"/>
<path d="M5820 6295 l0 -165 870 0 870 0 0 165 0 165 -870 0 -870 0 0 -165z"/>
<path d="M5820 5750 l0 -160 870 0 870 0 0 160 0 160 -870 0 -870 0 0 -160z"/>
<path d="M5820 5130 l0 -160 870 0 870 0 0 160 0 160 -870 0 -870 0 0 -160z"/>
<path d="M5820 4500 l0 -160 575 0 575 0 0 160 0 160 -575 0 -575 0 0 -160z"/>
</g>
</svg>
